<svg id="레이어_1" data-name="레이어 1" xmlns="http://www.w3.org/2000/svg" viewBox="0 0 716.96 69"><defs><style>.cls-1{fill:#231815;}</style></defs><title>logo_image</title><path class="cls-1" d="M359.78,19.58V52.75a3.63,3.63,0,0,0,3.62,3.63h39.66V50.19H366v-28h37.09V16H363.4a3.63,3.63,0,0,0-3.62,3.63"/><path class="cls-1" d="M522.36,16H481.69a3.64,3.64,0,0,0-3.63,3.63V52.75a3.64,3.64,0,0,0,3.63,3.63h40.67A3.64,3.64,0,0,0,526,52.75V19.58A3.64,3.64,0,0,0,522.36,16M519.8,50.19H484.25v-28H519.8Z"/><path class="cls-1" d="M546,22.14H583.9V16H543.39a3.64,3.64,0,0,0-3.63,3.63V39.26h39.5V50.19h-39.5v6.19h42.06a3.64,3.64,0,0,0,3.63-3.63V33.07H546Z"/><path class="cls-1" d="M704.38,16H663.7a3.63,3.63,0,0,0-3.62,3.63v36.8h6.18V22.14h35.56V56.38H708V19.58A3.63,3.63,0,0,0,704.38,16"/><path class="cls-1" d="M641,50.19H605.42V16h-6.19v36.8a3.63,3.63,0,0,0,3.62,3.63h40.68a3.63,3.63,0,0,0,3.62-3.63V16H641Z"/><polygon class="cls-1" points="458.45 33.07 422.91 33.07 422.91 15.95 416.72 15.95 416.72 56.38 422.91 56.38 422.91 39.26 458.45 39.26 458.45 56.38 464.64 56.38 464.64 15.95 458.45 15.95 458.45 33.07"/><polygon class="cls-1" points="116.37 16.39 113.31 16.39 113.31 56.38 146.13 56.38 146.13 53.54 116.37 53.54 116.37 16.39"/><polygon class="cls-1" points="160.73 16.39 157.68 16.39 157.68 56.38 190.42 56.38 190.42 53.54 160.73 53.54 160.73 16.39"/><polygon class="cls-1" points="204.57 37.95 233.18 37.95 233.18 35.08 204.57 35.08 204.57 19.21 234.25 19.21 234.25 16.39 201.53 16.39 201.53 56.38 234.53 56.38 234.53 53.55 204.57 53.55 204.57 37.95"/><polygon class="cls-1" points="310.97 38.09 295.85 16.39 292.2 16.39 309.43 41.19 309.43 56.38 312.47 56.38 312.47 41.13 329.38 16.39 325.77 16.39 310.97 38.09"/><path class="cls-1" d="M282.79,28.8v-.12a12.33,12.33,0,0,0-3-8.16c-2.4-2.4-5.6-4.11-11.09-4.11H248v40h2.94V41.23h15.71s2.84,0,3.62-.08l.12,0,10.33,15.25h3.46L273.65,40.63a11.73,11.73,0,0,0,9.14-11.83m-31.85,9.45v-19h17.6c7.26,0,11.26,3.74,11.26,9.57v.11c0,5.79-4,9.34-11.44,9.34Z"/><path class="cls-1" d="M78.82,16.39l-19.25,40h3.19L68.05,45H92.21l5.48,11.38h3.15l-19.36-40ZM69.34,42.25,80.09,19.87,90.92,42.25Z"/><path class="cls-1" d="M31.7,38.22H45.22V48.68c-2.92,2.46-7.55,4.88-14.66,4.88-11.92,0-18.46-7-18.46-17.4v-.11a17.11,17.11,0,0,1,17.4-17.2c6.06,0,12,2.29,15.16,5l2-2.29c-4-3.32-10.46-5.65-17-5.65A20.36,20.36,0,0,0,9,36.16v.12c0,11.28,7.21,20.1,21.5,20.1a26.24,26.24,0,0,0,14.77-4v4H48v-21H31.7Z"/></svg>